/* XPM */
static char * snapvis_xpm[] = {
"16 16 2 1",
" 	c #FFFFFFFFFFFF",
".	c #0000FFFF0000",
"  .   .   .   . ",
"  .   .   .   . ",
"................",
"  .   .   .   . ",
"  .   .   .   . ",
"  .   .   .   . ",
"................",
"  .   .   .   . ",
"  .   .   .   . ",
"  .   .   .   . ",
"................",
"  .   .   .   . ",
"  .   .   .   . ",
"  .   .   .   . ",
"................",
"  .   .   .   . "};
