/* XPM */
static char * zoomin_xpm[] = {
"16 16 5 1",
" 	c #800080008000",
"-	c #FFFFFFFFFFFF",
".	c #000000000000",
"X	c #0000FFFFFFFF",
"o	c #FFFF7DF70000",
"   .....        ",
" ..-XXXX..      ",
" .----XXX.      ",
".-.--.--.-.     ",
"...........  .  ",
".-.--.--.-. ....",
"...........  .  ",
".X.--.--.-.     ",
" .XXX----.      ",
" ..XXX--.o.     ",
"   ..... .o.    ",
"          .o.   ",
"           .o.  ",
"            .o. ",
"             .. ",
"                "};
