<?xml version="1.0" encoding="UTF-8" standalone="no"?>
<!-- Created with Inkscape (http://www.inkscape.org/) -->

<svg
   xmlns:dc="http://purl.org/dc/elements/1.1/"
   xmlns:cc="http://creativecommons.org/ns#"
   xmlns:rdf="http://www.w3.org/1999/02/22-rdf-syntax-ns#"
   xmlns:svg="http://www.w3.org/2000/svg"
   xmlns="http://www.w3.org/2000/svg"
   xmlns:xlink="http://www.w3.org/1999/xlink"
   xmlns:sodipodi="http://sodipodi.sourceforge.net/DTD/sodipodi-0.dtd"
   xmlns:inkscape="http://www.inkscape.org/namespaces/inkscape"
   width="16px"
   height="16px"
   id="svg2160"
   sodipodi:version="0.32"
   inkscape:version="0.46+devel"
   sodipodi:docname="blockedit.svg"
   inkscape:output_extension="org.inkscape.output.svg.inkscape">
  <defs
     id="defs2162">
    <inkscape:perspective
       sodipodi:type="inkscape:persp3d"
       inkscape:vp_x="0 : 8 : 1"
       inkscape:vp_y="0 : 1000 : 0"
       inkscape:vp_z="16 : 8 : 1"
       inkscape:persp3d-origin="8 : 5.3333333 : 1"
       id="perspective29" />
    <linearGradient
       id="linearGradient12512">
      <stop
         style="stop-color:#ffffff;stop-opacity:1.0000000;"
         offset="0.0000000"
         id="stop12513" />
      <stop
         style="stop-color:#fff520;stop-opacity:0.89108908;"
         offset="0.50000000"
         id="stop12517" />
      <stop
         style="stop-color:#fff300;stop-opacity:0.0000000;"
         offset="1.0000000"
         id="stop12514" />
    </linearGradient>
    <radialGradient
       inkscape:collect="always"
       xlink:href="#linearGradient12512"
       id="radialGradient278"
       gradientUnits="userSpaceOnUse"
       cx="55.000000"
       cy="125.00000"
       fx="55.000000"
       fy="125.00000"
       r="14.375000" />
    <linearGradient
       id="linearGradient3240">
      <stop
         style="stop-color:#c6ffc7;stop-opacity:1;"
         offset="0"
         id="stop3242" />
      <stop
         style="stop-color:#000000;stop-opacity:0;"
         offset="1"
         id="stop3244" />
    </linearGradient>
    <filter
       inkscape:collect="always"
       x="-0.40165289"
       width="1.8033058"
       y="-0.40165289"
       height="1.8033058"
       id="filter4024">
      <feGaussianBlur
         inkscape:collect="always"
         stdDeviation="0.34075874"
         id="feGaussianBlur4026" />
    </filter>
    <inkscape:perspective
       id="perspective1446"
       inkscape:persp3d-origin="0.5 : 0.33333333 : 1"
       inkscape:vp_z="1 : 0.5 : 1"
       inkscape:vp_y="0 : 1000 : 0"
       inkscape:vp_x="0 : 0.5 : 1"
       sodipodi:type="inkscape:persp3d" />
    <radialGradient
       inkscape:collect="always"
       xlink:href="#linearGradient2984"
       id="radialGradient12692"
       gradientUnits="userSpaceOnUse"
       gradientTransform="matrix(1.66077,-0.5114749,0.3584765,1.1380119,-52.478445,-7.4863015)"
       cx="29.053354"
       cy="27.640751"
       fx="29.053354"
       fy="27.640751"
       r="3.2408545" />
    <linearGradient
       id="linearGradient2984"
       inkscape:collect="always">
      <stop
         id="stop2986"
         offset="0"
         style="stop-color:#e7e2b8;stop-opacity:1;" />
      <stop
         id="stop2988"
         offset="1"
         style="stop-color:#e7e2b8;stop-opacity:0;" />
    </linearGradient>
  </defs>
  <sodipodi:namedview
     id="base"
     pagecolor="#ffffff"
     bordercolor="#666666"
     borderopacity="1.0"
     inkscape:pageopacity="0.0"
     inkscape:pageshadow="2"
     inkscape:zoom="22.197802"
     inkscape:cx="-1.7532179"
     inkscape:cy="8"
     inkscape:current-layer="layer1"
     showgrid="true"
     inkscape:grid-bbox="true"
     inkscape:document-units="px"
     inkscape:window-width="1152"
     inkscape:window-height="793"
     inkscape:window-x="0"
     inkscape:window-y="25" />
  <metadata
     id="metadata2165">
    <rdf:RDF>
      <cc:Work
         rdf:about="">
        <dc:format>image/svg+xml</dc:format>
        <dc:type
           rdf:resource="http://purl.org/dc/dcmitype/StillImage" />
        <dc:title />
      </cc:Work>
    </rdf:RDF>
  </metadata>
  <g
     id="layer1"
     inkscape:label="Layer 1"
     inkscape:groupmode="layer">
    <path
       style="fill:none;fill-rule:evenodd;stroke:#000000;stroke-width:1.39860046px;stroke-linecap:butt;stroke-linejoin:miter;stroke-opacity:1"
       d="M 1.6993002,4.8001142 C 1.6993002,4.0323881 1.6993002,6.1874076 1.6993002,7.1314013 C 1.6993002,8.3269519 1.6993002,9.5225027 1.6993002,10.718053"
       id="path3197"
       inkscape:transform-center-x="-0.69930023" />
    <path
       style="fill:none;fill-rule:evenodd;stroke:#000000;stroke-width:1.30206299px;stroke-linecap:butt;stroke-linejoin:miter;stroke-opacity:1"
       d="M 16.340038,7.9045778 C 16.170995,7.9045778 15.782267,7.9045778 15.510057,7.9045778 C 15.332995,7.9045778 15.155932,7.9045778 14.97887,7.9045778 C 14.646878,7.9045778 14.314885,7.9045778 13.982894,7.9045778 C 13.756061,7.9045778 14.109982,7.9045778 14.182089,7.9045778"
       id="path3204" />
    <path
       style="fill:none;fill-rule:evenodd;stroke:#729fcf;stroke-width:1.39256011999999996px;stroke-linecap:butt;stroke-linejoin:miter;stroke-opacity:1"
       d="M 4.8935538,8.0622511 C 5.3383788,8.0622511 6.3612827,8.0622511 7.0775815,8.0622511 C 7.5435072,8.0622511 8.0094329,8.0622511 8.4753585,8.0622511 C 9.3489697,8.0622511 10.22258,8.0622511 11.096191,8.0622511 C 11.693085,8.0622511 10.761766,8.0622511 10.572024,8.0622511"
       id="path3214" />
    <path
       style="fill:none;fill-rule:evenodd;stroke:#729fcf;stroke-width:1.389;stroke-linecap:butt;stroke-linejoin:miter;stroke-opacity:1;stroke-miterlimit:4;stroke-dasharray:none"
       d="M 11.694517,4.8941729 C 11.694517,4.1226995 11.694517,6.2882379 11.694517,7.2368393 C 11.694517,8.4382256 11.694517,9.639612 11.694517,10.840998"
       id="path3216" />
    <path
       style="fill:none;fill-rule:evenodd;stroke:#729fcf;stroke-width:1.336;stroke-linecap:butt;stroke-linejoin:miter;stroke-opacity:1;stroke-miterlimit:4;stroke-dasharray:none"
       d="M 4.2655817,10.718063 C 4.2569707,11.44917 4.2811417,9.396941 4.2917297,8.4979743 C 4.305139,7.3594493 4.3185482,6.2209242 4.3319577,5.0823988"
       id="path3220"
       inkscape:transform-center-x="2.6989442"
       inkscape:transform-center-y="1.5477264" />
    <path
       style="fill:none;fill-rule:evenodd;stroke:#000000;stroke-width:1.34471488px;stroke-linecap:butt;stroke-linejoin:miter;stroke-opacity:1"
       d="M 14.327643,4.8345845 C 14.327643,4.0668584 14.327643,6.2218779 14.327643,7.1658716 C 14.327643,8.3614222 14.327643,9.5569733 14.327643,10.752524"
       id="path3222" />
    <path
       sodipodi:type="arc"
       style="fill:#008c03;fill-opacity:1;fill-rule:nonzero;stroke:#008c04;stroke-linejoin:round;stroke-opacity:1;opacity:0.62101910999999999"
       id="path3224"
       sodipodi:cx="8.1990099"
       sodipodi:cy="3.1608911"
       sodipodi:rx="1.5316832"
       sodipodi:ry="1.5316832"
       d="M 9.7306931 3.1608911 A 1.5316832 1.5316832 0 1 1  6.6673267,3.1608911 A 1.5316832 1.5316832 0 1 1  9.7306931 3.1608911 z"
       transform="matrix(1.3326023,0,0,1.3326023,-3.0745345,-1.504785)" />
    <path
       sodipodi:type="arc"
       style="fill:#8bf68e;fill-opacity:1;fill-rule:nonzero;stroke:#d3fcd3;stroke-linejoin:round;stroke-opacity:1;filter:url(#filter4024);opacity:0.62101911"
       id="path3250"
       sodipodi:cx="7.5007424"
       sodipodi:cy="2.4626236"
       sodipodi:rx="0.51806933"
       sodipodi:ry="0.51806933"
       d="M 8.0188118 2.4626236 A 0.51806933 0.51806933 0 1 1  6.9826731,2.4626236 A 0.51806933 0.51806933 0 1 1  8.0188118 2.4626236 z"
       transform="matrix(1.2433747,0,0,1.2433747,-2.0603915,-0.8322608)" />
    <path
       sodipodi:type="arc"
       style="fill:#ea0000;fill-opacity:1;fill-rule:nonzero;stroke:#ea0000;stroke-linejoin:round;stroke-opacity:1;opacity:0.60099999999999998"
       id="path4034"
       sodipodi:cx="8.1990099"
       sodipodi:cy="3.1608911"
       sodipodi:rx="1.5316832"
       sodipodi:ry="1.5316832"
       d="M 9.7306931 3.1608911 A 1.5316832 1.5316832 0 1 1  6.6673267,3.1608911 A 1.5316832 1.5316832 0 1 1  9.7306931 3.1608911 z"
       transform="matrix(1.3326023,0,0,1.3326023,-3.0379006,8.949671)" />
    <path
       sodipodi:type="arc"
       style="fill:#ed0202;fill-opacity:0.97663549999999999;fill-rule:nonzero;stroke:#fff6f6;stroke-linejoin:round;stroke-opacity:1;filter:url(#filter4024);opacity:0.62101911"
       id="path4036"
       sodipodi:cx="7.5007424"
       sodipodi:cy="2.4626236"
       sodipodi:rx="0.51806933"
       sodipodi:ry="0.51806933"
       d="M 8.0188118 2.4626236 A 0.51806933 0.51806933 0 1 1  6.9826731,2.4626236 A 0.51806933 0.51806933 0 1 1  8.0188118 2.4626236 z"
       transform="matrix(1.3434079,0,0,1.3868861,-2.6614572,9.403929)" />
    <path
       style="fill:none;fill-rule:evenodd;stroke:#000000;stroke-width:1.30206299px;stroke-linecap:butt;stroke-linejoin:miter;stroke-opacity:1"
       d="M 2.3873088,7.8910891 C 2.2182658,7.8910891 1.8295378,7.8910891 1.5573278,7.8910891 C 1.3802658,7.8910891 1.2032028,7.8910891 1.0261408,7.8910891 C 0.69414879,7.8910891 0.36215579,7.8910891 0.030164793,7.8910891 C -0.19666821,7.8910891 0.15725279,7.8910891 0.22935979,7.8910891"
       id="path4052" />
    <g
       id="g12687"
       transform="translate(1.8925749,-1.1877081)">
      <path
         sodipodi:nodetypes="cccccc"
         id="path2960"
         d="M 3.1781506,12.311899 5.380053,8.1740123 15.072589,-0.80795299 C 16.698027,-2.0773811 18.61549,0.17677763 17.269305,1.5908536 L 7.5460431,10.351631 3.1781506,12.311899 z"
         style="color:#000000;fill:#cb9022;fill-opacity:1;fill-rule:evenodd;stroke:#5c410c;stroke-width:0.55234361;stroke-linecap:butt;stroke-linejoin:miter;stroke-miterlimit:4;stroke-opacity:1;stroke-dasharray:none;stroke-dashoffset:0;marker:none;visibility:visible;display:inline;overflow:visible"
         inkscape:r_cx="true"
         inkscape:r_cy="true" />
      <path
         sodipodi:nodetypes="cccc"
         id="path2982"
         d="M 3.6881537,11.914091 5.4496756,8.6037819 c 0.9955939,0.193125 1.676718,0.8098537 1.7219019,1.7569811 l -3.4834238,1.553328 z"
         style="color:#000000;fill:url(#radialGradient12692);fill-opacity:1;fill-rule:evenodd;stroke:none;stroke-width:1;marker:none;visibility:visible;display:inline;overflow:visible"
         inkscape:r_cx="true"
         inkscape:r_cy="true" />
      <path
         sodipodi:nodetypes="ccccc"
         id="path3004"
         d="M 7.1926465,10.395805 7.156667,9.7679658 17.407525,0.54092818 c 0,0 0.0635,0.50320052 0.01347,0.63421122 L 7.1926465,10.395805 z"
         style="color:#000000;fill:#000000;fill-opacity:0.36363639;fill-rule:evenodd;stroke:none;stroke-width:1;marker:none;visibility:visible;display:inline;overflow:visible"
         inkscape:r_cx="true"
         inkscape:r_cy="true" />
    </g>
  </g>
</svg>
