<?xml version="1.0" encoding="UTF-8" standalone="no"?>
<!-- Created with Inkscape (http://www.inkscape.org/) -->
<svg
   xmlns:dc="http://purl.org/dc/elements/1.1/"
   xmlns:cc="http://web.resource.org/cc/"
   xmlns:rdf="http://www.w3.org/1999/02/22-rdf-syntax-ns#"
   xmlns:svg="http://www.w3.org/2000/svg"
   xmlns="http://www.w3.org/2000/svg"
   xmlns:sodipodi="http://sodipodi.sourceforge.net/DTD/sodipodi-0.dtd"
   xmlns:inkscape="http://www.inkscape.org/namespaces/inkscape"
   width="16px"
   height="16px"
   id="svg2160"
   sodipodi:version="0.32"
   inkscape:version="0.45.1"
   sodipodi:docbase="C:\Dokumente und Einstellungen\MF\Eigene Dateien\xtc\source\xtrkcad\app\bin\bitmaps\SVG"
   sodipodi:docname="block.svg"
   inkscape:output_extension="org.inkscape.output.svg.inkscape">
  <defs
     id="defs2162">
    <linearGradient
       id="linearGradient3240">
      <stop
         style="stop-color:#c6ffc7;stop-opacity:1;"
         offset="0"
         id="stop3242" />
      <stop
         style="stop-color:#000000;stop-opacity:0;"
         offset="1"
         id="stop3244" />
    </linearGradient>
    <filter
       inkscape:collect="always"
       x="-0.40165289"
       width="1.8033058"
       y="-0.40165289"
       height="1.8033058"
       id="filter4024">
      <feGaussianBlur
         inkscape:collect="always"
         stdDeviation="0.34075874"
         id="feGaussianBlur4026" />
    </filter>
  </defs>
  <sodipodi:namedview
     id="base"
     pagecolor="#ffffff"
     bordercolor="#666666"
     borderopacity="1.0"
     inkscape:pageopacity="0.0"
     inkscape:pageshadow="2"
     inkscape:zoom="22.197802"
     inkscape:cx="8"
     inkscape:cy="8"
     inkscape:current-layer="layer1"
     showgrid="true"
     inkscape:grid-bbox="true"
     inkscape:document-units="px"
     inkscape:window-width="797"
     inkscape:window-height="573"
     inkscape:window-x="43"
     inkscape:window-y="33" />
  <metadata
     id="metadata2165">
    <rdf:RDF>
      <cc:Work
         rdf:about="">
        <dc:format>image/svg+xml</dc:format>
        <dc:type
           rdf:resource="http://purl.org/dc/dcmitype/StillImage" />
      </cc:Work>
    </rdf:RDF>
  </metadata>
  <g
     id="layer1"
     inkscape:label="Layer 1"
     inkscape:groupmode="layer">
    <path
       style="fill:none;fill-rule:evenodd;stroke:#000000;stroke-width:1.39860046px;stroke-linecap:butt;stroke-linejoin:miter;stroke-opacity:1"
       d="M 1.6993002,4.8001142 C 1.6993002,4.0323881 1.6993002,6.1874076 1.6993002,7.1314013 C 1.6993002,8.3269519 1.6993002,9.5225027 1.6993002,10.718053"
       id="path3197"
       inkscape:transform-center-x="-0.69930023" />
    <path
       style="fill:none;fill-rule:evenodd;stroke:#000000;stroke-width:1.30206299px;stroke-linecap:butt;stroke-linejoin:miter;stroke-opacity:1"
       d="M 16.340038,7.9045778 C 16.170995,7.9045778 15.782267,7.9045778 15.510057,7.9045778 C 15.332995,7.9045778 15.155932,7.9045778 14.97887,7.9045778 C 14.646878,7.9045778 14.314885,7.9045778 13.982894,7.9045778 C 13.756061,7.9045778 14.109982,7.9045778 14.182089,7.9045778"
       id="path3204" />
    <path
       style="fill:none;fill-rule:evenodd;stroke:#00c3ff;stroke-width:1.39256012px;stroke-linecap:butt;stroke-linejoin:miter;stroke-opacity:1"
       d="M 4.8935538,8.0622511 C 5.3383788,8.0622511 6.3612827,8.0622511 7.0775815,8.0622511 C 7.5435072,8.0622511 8.0094329,8.0622511 8.4753585,8.0622511 C 9.3489697,8.0622511 10.22258,8.0622511 11.096191,8.0622511 C 11.693085,8.0622511 10.761766,8.0622511 10.572024,8.0622511"
       id="path3214" />
    <path
       style="fill:none;fill-rule:evenodd;stroke:#00c3ff;stroke-width:1.38903475px;stroke-linecap:butt;stroke-linejoin:miter;stroke-opacity:1"
       d="M 11.694517,4.8941729 C 11.694517,4.1226995 11.694517,6.2882379 11.694517,7.2368393 C 11.694517,8.4382256 11.694517,9.639612 11.694517,10.840998"
       id="path3216" />
    <path
       style="fill:none;fill-rule:evenodd;stroke:#00c3ff;stroke-width:1.3360846px;stroke-linecap:butt;stroke-linejoin:miter;stroke-opacity:1"
       d="M 4.2655817,10.718063 C 4.2569707,11.44917 4.2811417,9.396941 4.2917297,8.4979743 C 4.305139,7.3594493 4.3185482,6.2209242 4.3319577,5.0823988"
       id="path3220"
       inkscape:transform-center-x="2.6989442"
       inkscape:transform-center-y="1.5477264" />
    <path
       style="fill:none;fill-rule:evenodd;stroke:#000000;stroke-width:1.34471488px;stroke-linecap:butt;stroke-linejoin:miter;stroke-opacity:1"
       d="M 14.327643,4.8345845 C 14.327643,4.0668584 14.327643,6.2218779 14.327643,7.1658716 C 14.327643,8.3614222 14.327643,9.5569733 14.327643,10.752524"
       id="path3222" />
    <path
       sodipodi:type="arc"
       style="fill:#00cb05;fill-opacity:1;fill-rule:nonzero;stroke:#00cb05;stroke-linejoin:round;stroke-opacity:1"
       id="path3224"
       sodipodi:cx="8.1990099"
       sodipodi:cy="3.1608911"
       sodipodi:rx="1.5316832"
       sodipodi:ry="1.5316832"
       d="M 9.7306931 3.1608911 A 1.5316832 1.5316832 0 1 1  6.6673267,3.1608911 A 1.5316832 1.5316832 0 1 1  9.7306931 3.1608911 z"
       transform="matrix(1.3326023,0,0,1.3326023,-3.0745345,-1.504785)" />
    <path
       sodipodi:type="arc"
       style="fill:#8bf68e;fill-opacity:1;fill-rule:nonzero;stroke:#d3fcd3;stroke-linejoin:round;stroke-opacity:1;filter:url(#filter4024)"
       id="path3250"
       sodipodi:cx="7.5007424"
       sodipodi:cy="2.4626236"
       sodipodi:rx="0.51806933"
       sodipodi:ry="0.51806933"
       d="M 8.0188118 2.4626236 A 0.51806933 0.51806933 0 1 1  6.9826731,2.4626236 A 0.51806933 0.51806933 0 1 1  8.0188118 2.4626236 z"
       transform="matrix(1.2433747,0,0,1.2433747,-2.0603915,-0.8322608)" />
    <path
       sodipodi:type="arc"
       style="fill:#ff0000;fill-opacity:1;fill-rule:nonzero;stroke:#ff0000;stroke-linejoin:round;stroke-opacity:1"
       id="path4034"
       sodipodi:cx="8.1990099"
       sodipodi:cy="3.1608911"
       sodipodi:rx="1.5316832"
       sodipodi:ry="1.5316832"
       d="M 9.7306931 3.1608911 A 1.5316832 1.5316832 0 1 1  6.6673267,3.1608911 A 1.5316832 1.5316832 0 1 1  9.7306931 3.1608911 z"
       transform="matrix(1.3326023,0,0,1.3326023,-3.0379006,8.949671)" />
    <path
       sodipodi:type="arc"
       style="fill:#ed0202;fill-opacity:0.9766355;fill-rule:nonzero;stroke:#fff6f6;stroke-linejoin:round;stroke-opacity:1;filter:url(#filter4024)"
       id="path4036"
       sodipodi:cx="7.5007424"
       sodipodi:cy="2.4626236"
       sodipodi:rx="0.51806933"
       sodipodi:ry="0.51806933"
       d="M 8.0188118 2.4626236 A 0.51806933 0.51806933 0 1 1  6.9826731,2.4626236 A 0.51806933 0.51806933 0 1 1  8.0188118 2.4626236 z"
       transform="matrix(1.3434079,0,0,1.3868861,-2.6614572,9.403929)" />
    <path
       style="fill:none;fill-rule:evenodd;stroke:#000000;stroke-width:1.30206299px;stroke-linecap:butt;stroke-linejoin:miter;stroke-opacity:1"
       d="M 2.3873088,7.8910891 C 2.2182658,7.8910891 1.8295378,7.8910891 1.5573278,7.8910891 C 1.3802658,7.8910891 1.2032028,7.8910891 1.0261408,7.8910891 C 0.69414879,7.8910891 0.36215579,7.8910891 0.030164793,7.8910891 C -0.19666821,7.8910891 0.15725279,7.8910891 0.22935979,7.8910891"
       id="path4052" />
  </g>
</svg>
