/* XPM */
static char * above_xpm[] = {
"16 16 3 1",
" 	c None",
".	c #000000000000",
"X	c #FFFF00000000",
"                ",
"      ..........",
"   ..... . . . .",
" ..XXX... . . ..",
" .XXXXXX.. . . .",
".XXXXXXX. . . ..",
".XXXXXXXX. . . .",
".XXXXXXXX.. . ..",
".XXXXXXXX. . . .",
".XXXXXXX. . . ..",
" .XXXXXX.. . . .",
" ..XXX... . . ..",
"   ..... . . . .",
"      ..........",
"                ",
"                "};
