#define arrow3_width 24
#define arrow3_height 24
static char arrow3_bits[] = {
   0x00, 0x00, 0x00, 0x00, 0x00, 0x00, 0x00, 0x00, 0x00, 0x00, 0x00, 0x00,
   0x00, 0x00, 0x00, 0x00, 0x00, 0x00, 0x00, 0x00, 0x00, 0x00, 0x00, 0x00,
   0x00, 0x00, 0x00, 0x00, 0x00, 0x00, 0x00, 0xfc, 0x07, 0x00, 0xfc, 0x03,
   0x00, 0xfc, 0x01, 0x00, 0xfc, 0x00, 0x00, 0xfc, 0x01, 0x00, 0xfc, 0x03,
   0x00, 0xdc, 0x07, 0x00, 0x8c, 0x0f, 0x00, 0x04, 0x1f, 0x00, 0x00, 0x3e,
   0x00, 0x00, 0x7c, 0x00, 0x00, 0xf8, 0x00, 0x00, 0x70, 0x00, 0x00, 0x20};
