/* XPM */
static char * ballgreen[] = {
"16 16 16 1",
" 	c None",
".	c #292929",
"+	c #292B29",
"@	c #29322B",
"#	c #365233",
"$	c #2D432E",
"%	c #57A572",
"&	c #B0D6C1",
"*	c #3F9159",
"=	c #7EC097",
"-	c #296932",
";	c #2D8840",
">	c #2C9231",
",	c #44C530",
"'	c #45BA32",
")	c #7BF737",
"    .+@#$@+.    ",
"   +$%&&&&%$+   ",
"  +#&&&&&&&&*+  ",
" +#=&===&&&==#+ ",
".@%%%%%%%%%%%*@.",
"+-;%%;*%**%%%*$+",
"@-**;*;;;;;;*;-@",
"@--;-;;;;;;;;;-@",
"@---->>>;->>---$",
"@->->>>>>;>>;--@",
"+->>>>,>>,>>>>-+",
".$>>>,,,,,,>>>@.",
" +->',,)),,,>-+ ",
"  +#,)))))),>+  ",
"   +#,)))),$+   ",
"    .+$##$+.    "};
