/* XPM */
static char *ballred[] = {
/* columns rows colors chars-per-pixel */
"16 16 16 1",
"  c #20F301EC00EA",
". c #060400000000",
"X c #297B14040000",
"o c #ED34010C0000",
"O c #FFFF07880000",
"+ c #E2BA07180718",
"@ c #A1E800000000",
"# c #F4791D5E016C",
"$ c #D2A11FA11FA1",
"% c #6D77055602AD",
"& c #FB014C2607BE",
"* c #FB747AB40D88",
"= c #CDB757875787",
"- c #E5DEA339A339",
"; c #000000000000",
": c None",
/* pixels */
"::::;.    .;::::",
":::. =----= .:::",
"::.%--------$.::",
":.%=====-====%.:",
"; $$$=$$$$=$$% ;",
".%+$$$$$$$$$$$%.",
" @++++++++++++@ ",
" @++@+++++@+++@ ",
" @ooooOoooooooo ",
" oooooOOOOoooo@ ",
".@ooOOOOOOOOoo@.",
"; oOO######OOo ;",
":.@O##&&&###O@.:",
"::.%#&&*&*&#%.::",
":::.X#***&#X.:::",
"::::;. XX .;::::"
};
