/* XPM */
static char * below_xpm[] = {
"16 16 3 1",
" 	c None",
".	c #000000000000",
"X	c #FFFF00000000",
"                ",
"     ...........",
"   ... . . . . .",
" ..XX.. . . . ..",
" .XXX. . . . . .",
".XXXX.. . . . ..",
".XXXX. . . . . .",
".XXXX.. . . . ..",
".XXXX. . . . . .",
".XXXX.. . . . ..",
" .XXX. . . . . .",
" ..XX.. . . . ..",
"   ... . . . . .",
"     ...........",
"                ",
"                "};
