/* XPM */
static char * block1_xpm[] = {
"16 16 3 1",
" 	c gray100",
".	c black",
"+	c red",
/* pixels */
"............    ",
".............   ",
"..         ...  ",
"..          ... ",
"..          ... ",
"..         ...  ",
".............   ",
"...........+++++",
".........+++.. +",
".........++.... ",
"..       +   ...",
"..      ++   ...",
"..       +   ...",
"..       ++  ...",
".........+++... ",
"..........++++++"};
