/* XPM */
static char * block2_xpm[] = {
"16 16 4 1",
" 	c None",
".	c #000000",
"+	c #FFFFFF",
"@	c #FF0000",
"............++++",
".............+++",
"..+++++++++...++",
"..++++++++++...+",
"..++++++++++...+",
"..+++++++++...++",
".............+++",
".........@@@@@@+",
".........@@@@@@+",
".........@@....+",
"..+++++++@@++...",
"..+++++++@@@@@@.",
"..+++++++@@++...",
"..+++++++@@++...",
".........@@@@@@+",
".........@@@@@@+"};
