/* XPM */
static char * blocknew_xpm[] = {
"16 16 71 1",
" 	c None",
".	c #028D05",
"+	c #3DA505",
"@	c #C1DB0D",
"#	c #FFF417",
"$	c #FFF41A",
"%	c #6AC66C",
"&	c #96DC91",
"*	c #7BBE08",
"=	c #C2DB12",
"-	c #FCF427",
";	c #FFF750",
">	c #FFF528",
",	c #FFF518",
"'	c #008C04",
")	c #8CD68D",
"!	c #A9E084",
"~	c #9CCC0B",
"{	c #E4EA1B",
"]	c #F9F560",
"^	c #FFFAA5",
"/	c #FFF864",
"(	c #FFF41E",
"_	c #008D03",
":	c #40A604",
"<	c #A5CF0D",
"[	c #EDED1D",
"}	c #FBF676",
"|	c #FFFCD0",
"1	c #FFFCD1",
"2	c #FFF878",
"3	c #FFF51F",
"4	c #FFF413",
"5	c #000000",
"6	c #008C03",
"7	c #299C05",
"8	c #95C90A",
"9	c #E4E919",
"0	c #FFF756",
"a	c #F4F795",
"b	c #FCFA91",
"c	c #FAF255",
"d	c #D3CA17",
"e	c #00C3FF",
"f	c #FDF215",
"g	c #E6F14D",
"h	c #F4F443",
"i	c #EFE61C",
"j	c #9B940D",
"k	c #A4E36A",
"l	c #D0EC42",
"m	c #C3BA0E",
"n	c #585404",
"o	c #0DC6F2",
"p	c #3ACEC6",
"q	c #49D1B9",
"r	c #7EDB86",
"s	c #4C4901",
"t	c #080700",
"u	c #00C4FF",
"v	c #EE2C2C",
"w	c #F46E6E",
"x	c #EC1C1C",
"y	c #EA0000",
"z	c #F99A9A",
"A	c #F9B3B3",
"B	c #F37E7E",
"C	c #F48080",
"D	c #F16262",
"E	c #EB0000",
"F	c #E90000",
"       .+@#$$#  ",
"      %&*=-;;>, ",
"     ')!~{]^^/( ",
"      _:<[}|1234",
" 5    67890abcd ",
" 5  e    f(ghij ",
" 5  e     4klmn ",
"555 eeeeeopqrst5",
"555 ueeeeeee 555",
" 5  u      e  5 ",
" 5  e      e  5 ",
"      vwxy      ",
"      zABy      ",
"      CADy      ",
"      EFFy      ",
"                "};
