/* XPM */
static char * blockdel_xpm[] = {
"16 16 33 1",
" 	c None",
".	c #FE0C28",
"+	c #FE102B",
"@	c #D1FCD1",
"#	c #D2FCD2",
"$	c #FF0000",
"%	c #FF102A",
"&	c #D3FCD3",
"*	c #FF0101",
"=	c #000000",
"-	c #C38790",
";	c #FE0D29",
">	c #B2A8AA",
",	c #ACB5B7",
"'	c #FE122B",
")	c #ACB6B7",
"!	c #DE5162",
"~	c #B5A0A2",
"{	c #F51819",
"]	c #FE0A23",
"^	c #D66070",
"/	c #FF0202",
"(	c #C67C7E",
"_	c #B6A0A5",
":	c #FF0303",
"<	c #FFF5F5",
"[	c #FEEEEE",
"}	c #FFF6F6",
"|	c #FDF1F1",
"1	c #FE142F",
"2	c #FFF0F0",
"3	c #FD102C",
"4	c #FE0D28",
"                ",
" .+   @#      $$",
" %..  @&     $$ ",
"   ..      *$$  ",
" =  ..    $$  = ",
" =  -.;  $$>  = ",
" =  , .'$$ ,  = ",
"=== ,)!$$~,, ===",
"=== ,,{$]^,, ===",
" =  ,/$ +. ,  = ",
" =  ($   .._  = ",
"    $: <  .+    ",
"   $* [}| 1.    ",
"  $$  2}   .3   ",
" *$        4.   ",
" *          .   "};
