/* XPM */
static char * blockedit_xpm[] = {
"16 16 70 1",
" 	c None",
".	c #028D05",
"+	c #008B04",
"@	c #815C14",
"#	c #C88F21",
"$	c #6AC66C",
"%	c #94DA95",
"&	c #008C03",
"*	c #008D03",
"=	c #875F15",
"-	c #CA8F22",
";	c #CB9022",
">	c #008C04",
",	c #8CD68D",
"'	c #99DD9A",
")	c #008B03",
"!	c #8E6516",
"~	c #B7821F",
"{	c #575B0E",
"]	c #976A17",
"^	c #B07D1D",
"/	c #6C4C10",
"(	c #000000",
"_	c #4E610C",
":	c #9F7119",
"<	c #A8781C",
"[	c #5D420D",
"}	c #00C3FF",
"|	c #63540F",
"1	c #A7771A",
"2	c #A0711B",
"3	c #61450F",
"4	c #090601",
"5	c #704E11",
"6	c #AE7C1C",
"7	c #956B1B",
"8	c #5E5526",
"9	c #34898C",
"0	c #BA9E58",
"a	c #CE972E",
"b	c #C88E21",
"c	c #8D661B",
"d	c #4C6B4F",
"e	c #00C4FF",
"f	c #01C1FB",
"g	c #7F7C4C",
"h	c #E3D6A3",
"i	c #DDC482",
"j	c #82621C",
"k	c #467461",
"l	c #01C2FC",
"m	c #C9AB64",
"n	c #CBB06D",
"o	c #997C3E",
"p	c #6A4E10",
"q	c #03BEF7",
"r	c #634813",
"s	c #886628",
"t	c #95360D",
"u	c #EE2C2C",
"v	c #F46E6E",
"w	c #EC1C1C",
"x	c #EA0000",
"y	c #F99A9A",
"z	c #F9B3B3",
"A	c #F37E7E",
"B	c #F48080",
"C	c #F16262",
"D	c #EB0000",
"E	c #E90000",
"       .+     @#",
"      $%&*   =-;",
"     >,'&)  !;;~",
"      *&&&{];;^/",
" (    &&)_:;;<[ ",
" (  }   |1;;234 ",
" (  }  56;-78 ( ",
"((( }}90abcd (((",
"((( efghijkl (((",
" (  e mnop }  ( ",
" (  qrst   }  ( ",
"      uvwx      ",
"      yzAx      ",
"      BzCx      ",
"      DEEx      ",
"                "};
