/* XPM */
static char * bo_edge_xpm[] = {
"16 14 3 1",
" 	c None",
".	c #000000000000",
"X	c #FFFF9A691861",
"     ......     ",
"     .XXXX.     ",
"     .XXXX.     ",
"     .XXXX.     ",
"     .XXXX.     ",
"     .XXXX.     ",
"     .XXXX.     ",
"     .XXXX.     ",
"     .XXXX.     ",
"     .XXXX.     ",
"     .XXXX.     ",
"     .XXXX.     ",
"     .XXXX.     ",
"     ......     "};
