/* XPM */
static char * bo_lr_xpm[] = {
"16 14 3 1",
" 	c None",
".	c #000000000000",
"X	c #FFFF9A691861",
"    ........    ",
"    .XXXXXX.    ",
"    .XXXXXX.    ",
"    .XXXXXX.    ",
"    ....XXX.    ",
"       .XXX.    ",
"       .XXX.    ",
"       .XXX.    ",
"       .XXX.    ",
"       .XXX.    ",
"       .XXX.    ",
"       .XXX.    ",
"       .XXX.    ",
"       .....    "};
