/* XPM */
static char * bo_tr_xpm[] = {
"16 14 3 1",
" 	c None",
".	c #000000000000",
"X	c #FFFF9A691861",
" .....          ",
" .XXX.          ",
" .XXX.          ",
" .XXX.          ",
" .XXX.......... ",
" .XXXXXXXXXXXX. ",
" .XXXXXXXXXXXX. ",
" .XXXXXXXXXXXX. ",
" .XXX.......... ",
" .XXX.          ",
" .XXX.          ",
" .XXX.          ",
" .XXX.          ",
" .....          "};
