/* XPM */
static char * bo_t_xpm[] = {
"16 14 3 1",
" 	c None",
".	c #000000000000",
"X	c #FFFF9A691861",
" .............  ",
" .XXXXXXXXXXX.  ",
" .XXXXXXXXXXX.  ",
" .XXXXXXXXXXX.  ",
" .....XXX.....  ",
"     .XXX.      ",
"     .XXX.      ",
"     .XXX.      ",
"     .XXX.      ",
"     .XXX.      ",
"     .XXX.      ",
"     .XXX.      ",
"     .XXX.      ",
"     .....      "};
