/* XPM */
static char*carpart_xpm[]={
"16 16 3 1",
". c None",
"# c #ffff00000000",
"a c #000000000000",
"................",
"................",
"................",
"................",
"................",
"................",
".##############.",
".##############.",
".##############.",
".##############.",
"a##############a",
"..a.a......a.a..",
".a.a.a....a.a.a.",
"..a.a......a.a..",
"................",
"................"};
