/* XPM */
static char * circle1_xpm[] = {
"16 16 4 1",
" 	c None",
".	c #000000000000",
"X	c #FFFF00000000",
"o	c #FFFFFFFFFFFF",
"     ......     ",
"    .      .    ",
"  ..  ....  ..  ",
" .XXXXXXXXXXX . ",
" .XoooooooooX . ",
". XoXXXoXXXoX  .",
". XoXoXoXoooX. .",
". XoXXXoXXooX. .",
". XoooXoooXoX. .",
". XoooXoooXoX. .",
". XoooXoXXooX  .",
" .XoooooooooX . ",
" .XXXXXXXXXXX . ",
"  ..  ....  ..  ",
"    .      .    ",
"     ......     "};
