/* XPM */
static char * cnote_xpm[] = {
"16 16 3 1",
".	c None",
" 	c #000000000000",
"X	c #FFFFFFFF0000",
"          ......",
" XXXXXXXX  .....",
" XXXXXX X X ....",
" XXXXXX X XX ...",
" XXXXXX X XXX ..",
" XXXXXX X      .",
" XXXXXX XXXXXX .",
" XXXXXX XXXXXX .",
" XXXXXX XXXXXX .",
" XXXXXX XXXXXX .",
" XXXXXX XXXXXX .",
" XXXXXXXXXXXXX .",
" XXXXXX XXXXXX .",
" XXXXXXXXXXXXX .",
" XXXXXXXXXXXXX .",
"               ."};
