/* XPM */
static char * curve2_xpm[] = {
"16 16 4 1",
" 	c None",
".	c #000000000000",
"X	c #861782078617",
"o	c #FFFF00000000",
"           .   X",
"          ......",
"      . .. .   .",
"      ..  ..... ",
"     . X.. .  ..",
"  . .o ..     . ",
"  X.  o  .      ",
"  . X. o        ",
"  . .X  o       ",
" .  . X  o      ",
" . .      o     ",
".....      o   o",
" . .        o  o",
" . .         ooo",
" .  .        ooo",
"  ....     ooooo"};
