/* XPM */
static char * dbox_xpm[] = {
"16 16 3 1",
"X	c None",
" 	c #000000000000",
".	c #FFFF00000000",
"           .....",
"            XX..",
"  XXXXXXXXXXX.X.",
"  XXXXXXXXXX.XX.",
"  XXXXXXXXX.XX .",
"  XXXXXXXX.XXX  ",
"  XXXXXXX.XXXX  ",
"  XXXXXX.XXXXX  ",
"  XXXXX.XXXXXX  ",
"  XXXX.XXXXXXX  ",
"  XXX.XXXXXXXX  ",
"  XX.XXXXXXXXX  ",
"  X.XXXXXXXXXX  ",
"  .XXXXXXXXXXX  ",
"..              ",
"..              "};
