/* XPM */
static char * dcircle2_xpm[] = {
"16 16 3 1",
" 	c None",
".	c #000000000000",
"X	c #FFFF00000000",
"     ......     ",
"    ........    ",
"  ...      ...  ",
" ...         .. ",
" ..           . ",
"..            ..",
"..            ..",
"..     XXXXX  ..",
"..     XX     ..",
"..     X X    ..",
"..     X  X   ..",
" ..    X   X  . ",
" ...        X.. ",
"  ...       .X  ",
"    .........   ",
"     ......     "};
