/* XPM */
static char * dcurve3_xpm[] = {
"16 16 3 1",
" 	c None",
".	c #000000000000",
"X	c #FFFF00000000",
"                ",
"          ..... ",
"        ........",
"      ....     .",
"     ...        ",
"    .XXXXXX     ",
"   ..XXX        ",
"  .. XXX        ",
"  .. X  X       ",
" ... X   X      ",
" ..  X    X     ",
" ..        X    ",
" ..         X   ",
" ..          X  ",
" ..           XX",
"  ..          XX"};
