/* XPM */
static char * ddimlin_xpm[] = {
"16 16 3 1",
" 	c None",
".	c #FFFF00000000",
"X	c #000000000000",
"           .....",
"              ..",
"             . .",
"            .  .",
"           .   .",
"      X  XXX    ",
"     X X X      ",
"      XX XX     ",
"       X   X    ",
"     XX  XX     ",
"     .          ",
".   .           ",
".  .            ",
". .             ",
"..              ",
".....           "};
