/* XPM */
static char * describe_xpm[] = {
"16 16 3 1",
" 	c None",
".	c #FFFF00000000",
"X	c #000000000000",
"    ......      ",
"   ...  ...     ",
"  ...    ...    ",
"  ...     ...   ",
"  ...     ...   ",
" X   X    ... X ",
"XXXXXXXX  ... XX",
" X   X   ...  X ",
" X     ....   X ",
" X    ...     X ",
"XXXX ...  XXXXXX",
" X   ...  X   X ",
"     ...        ",
"                ",
"     ...        ",
"     ...        "};
