/* XPM */
static char * dfilpoly_xpm[] = {
"16 16 4 1",
"X	c None",
" 	c #FFFF00000000",
".	c #000000000000",
"o	c #0000FFFFFFFF",
" ..... XXXXXXXXX",
".oooooo..... XXX",
".ooooooooo..XXXX",
".oooooooo.XXXXXX",
".oooooo..XXXXXXX",
".ooooo.XXXXXXXXX",
".oooo.XXXXXXXXXX",
".oooo .XXXXXXXXX",
".oooooo..... XXX",
" oooooooooooo.. ",
"X.oooooooooooo.X",
"X.oooooooooo..XX",
"XX.oooooooo.XXXX",
"XXX.oooooo.XXXXX",
"XXX.oooo..XXXXXX",
"XXXX .. XXXXXXXX"};
