/* XPM */
static char * dfilbox_xpm[] = {
"16 16 4 1",
"o	c None",
" 	c #000000000000",
".	c #FFFF00000000",
"X	c #0000FFFFFFFF",
"           .....",
" XXXXXXXXXXXXX..",
" XXXXXXXXXXXX.X.",
" XXXXXXXXXXX.XX.",
" XXXXXXXXXX.XXX.",
" XXXXXXXXX.XXXX ",
" XXXXXXXX.XXXXX ",
" XXXXXXX.XXXXXX ",
" XXXXXX.XXXXXXX ",
" XXXXX.XXXXXXXX ",
" XXXX.XXXXXXXXX ",
" XXX.XXXXXXXXXX ",
" XX.XXXXXXXXXXX ",
" X.XXXXXXXXXXXX ",
"..XXXXXXXXXXXXX ",
"..              "};
