/* XPM */
static char * dflcrcl1_xpm[] = {
"16 16 3 1",
" 	c None",
".	c #000000000000",
"X	c #FFFF00000000",
"     ......     ",
"    .. . . .    ",
"  . . . . . ..  ",
" .XXXXXXXXXXX.. ",
" .X         X . ",
". X XXX XXX X. .",
"..X X X X   X ..",
". X XXX XX  X. .",
"..X   X   X X ..",
". X   X   X X. .",
"..X   X XX  X ..",
". X         X.. ",
" .XXXXXXXXXXX . ",
"  .. . . . ...  ",
"    . . . ..    ",
"     ......     "};
