/* XPM */
static char * dline_xpm[] = {
"16 16 3 1",
" 	c None",
".	c #FFFF00000000",
"X	c #000000000000",
"           .....",
"              ..",
"             . .",
"            .  .",
"           .   .",
"          .     ",
"        X.      ",
"       XXX      ",
"      XXX       ",
"     XXX        ",
"    XXX         ",
"   XXX          ",
"  XXX           ",
" XXX            ",
"XXX             ",
"XX              "};
