/* XPM */
static char *document_open[] = {
/* columns rows colors chars-per-pixel */
"16 16 16 1",
"  c #1847190B1775",
". c #291C298328DF",
"X c #1861194E19BA",
"o c #092C21F65F9C",
"O c #0970223A60B7",
"+ c #0F752D8A6C5B",
"@ c #267C522F9996",
"# c #24883F076794",
"$ c #5EE75F5C5EA1",
"% c #4A7076A0B54A",
"& c #A614A62AA5EA",
"* c #DBA7DBA7DBA7",
"= c #8884AB4ED2CA",
"- c #77049BB6CA92",
"; c None",
": c #082A21506052",
/* pixels */
";;;;   . .. ;;;;",
"X.$. ******$ ;;;",
".&&$ &&&&&&*$X;;",
".&$$ &$$$$&**$X;",
".&$$.*&&&&&**& ;",
" &$$ *$$$$*&*& ;",
" &$$ ********& ;",
" $oooooooooooooO",
".$o=====-======o",
" %o=%%%%%%%%%%-o",
" $o=%%-%%%-%%%-o",
"X$o=%%%-%%%%%%-o",
" $O%%%@@%@%@@@%o",
"X$o%@@@%@%@@%@%o",
" #o#+@+@@@@++@+O",
"XoooooooooooooO:"
};
