/* XPM */
static char *document_new[] = {
/* columns rows colors chars-per-pixel */
"16 16 16 1",
"  c #578757875787",
". c #D8CCC69C0972",
"X c #F68EE212077A",
"o c #4DB24DB22F3A",
"O c #6DBE6C5B24E5",
"+ c #F4FCE3151187",
"@ c #F755E8202525",
"# c #EC82D7FE0467",
"$ c #383338333833",
"% c #E683DCF75128",
"& c #F190EA107861",
"* c #E462E45CE3EB",
"= c #FFFDE56F00EE",
"- c #E1C4CC690469",
"; c None",
": c #FFFFE5710000",
/* pixels */
" $$$$$$$$$oo.=;;",
"$********%@++#-;",
"$*******&@+@++#:",
"$*******%+@&&@X=",
"$*******%+@&&@X=",
"$*****o*&@+@@+#:",
"$***&****%@++@-;",
"$*********%%%o;;",
"$************$;;",
"$************$;;",
"$*&**********$;;",
"$*******&****$;;",
"$************$;;",
"$************$;;",
" $$$$$$$$$$$$ ;;",
";;;;;;;;;;;;;;;;"
};
