/* XPM */
static char *document_print[] = {
/* columns rows colors chars-per-pixel */
"16 16 9 1",
"  c #3337339F31FF",
". c #348035693399",
"X c #348035693399",
"o c #66E868406591",
"O c #403B41A53DC6",
"+ c #6C9C6D446BEA",
"@ c #A4FCA4E5A4D9",
"# c #E30AE30AE31D",
"$ c None",
/* pixels */
"$$$$$$$$$$$$$$$$",
"$$$o+++++++++o$$",
"$$$+####O####+$$",
"$$$+#@@OOO@+#+$$",
"$$$+##OOOO ##+$$",
"$$$+#@+@O+@@#+$$",
"$$$+#@##O####+$$",
"$$$+#########+$$",
"$. O+++++++++O .",
"$O############# ",
"$ #@#+#@##@@@+@ ",
"$ #@#@@#@@@#@O+ ",
"$O#+O        +@O",
"$ #@+@++++++++@ ",
"$ #@@@@@@@@@@@@ ",
"$X    O  OO    X"
};
