/* XPM */
static char * document_save[] = {
"16 16 16 1",
" 	c None",
".	c #193A55",
"+	c #192933",
"@	c #0A2342",
"#	c #122735",
"$	c #536974",
"%	c #A7BDC6",
"&	c #5180AA",
"*	c #244E77",
"=	c #272925",
"-	c #102C4B",
";	c #E6E6E6",
">	c #7095AB",
",	c #2D5C8D",
"'	c #6E6E6E",
")	c #9B9C9B",
".+..@@@#.       ",
"...$%%&*@       ",
"+=#---&%*#=====.",
"=%;%>,@>&-%;;;;=",
"=;;%%$@,&-'%;;;=",
"=;;@@@@,*@@@@;;=",
"=;;)@&***,&@$%;=",
"=;;;)@&,,>@$;;;=",
"=;;;%)@>&@$%;;;=",
"=;;;;;)#@$;;;;;=",
"=;;;;;;;;;;;;;;=",
"=))))))))))))))=",
"=))')')')')')')=",
"=))')')')')')')=",
"=))))))))))))))=",
"+==============+"};
