/* XPM */
static char * document_open[] = {
"16 16 16 1",
" 	c None",
".	c #181917",
"+	c #292928",
"@	c #DBDBDB",
"#	c #5E5F5E",
"$	c #181919",
"%	c #A6A6A5",
"&	c #09215F",
"*	c #092260",
"=	c #88ABD2",
"-	c #779BCA",
";	c #4A76B5",
">	c #265299",
",	c #243F67",
"'	c #0F2D6C",
")	c #082160",
"    ...+.++.    ",
"   +.@@@@@@#.   ",
"++++.@@@@@@@#$  ",
"+%%#.@#####@@#$ ",
"+%%#+@@@@@@@@%. ",
".%%#.@######@%. ",
".%%#.@@@@@@@@%. ",
".%&&&&&&&&&&&&&*",
"+%&=====-======&",
".%&=;;;;;;;;;;-&",
".%&=;;-;;;-;;;-&",
"$%&=;;;-;;;;;;-&",
".%*;;;>>;>;>>>;&",
"$%&;>>>;>;>>;>;&",
".,&,'>'>>>>''>'*",
"$&&&&&&&&&&&&&*)"};
