/* XPM */
static char *document_save[] = {
/* columns rows colors chars-per-pixel */
"16 16 16 1",
"  c #2797299A25FD",
". c #128E276335CC",
"X c #1900299833D9",
"o c #0A74233B428B",
"O c #10682CB84B29",
"+ c #24414E3B7799",
"@ c #2DE05CBE8D50",
"# c #6E726E056E05",
"$ c #533B69EC7464",
"% c #51B1802BAA90",
"& c #9B779C519BC0",
"* c #E640E653E667",
"= c #A7C7BD72C69C",
"- c #70CA9586AB3C",
"; c None",
": c #19763AAA552B",
/* pixels */
":X::ooo.:;;;;;;;",
":::$==%+o;;;;;;;",
"X .OOO%=+.     :",
" =*=-@o-%O=**** ",
" **==$o@%O#=*** ",
" **oooo@+oooo** ",
" **&o%+++@%o$=* ",
" ***&o%@@-o$*** ",
" ***=&o-%o$=*** ",
" *****&.o$***=* ",
" ************=* ",
" &&&&&&&&-&&&&& ",
" &&##&&&&#&#&#& ",
" &###&#&&#&#&#& ",
" ===&=&&&&&&&&& ",
"X              X"
};
