/* XPM */
static char * document_print_xpm[] = {
"16 16 5 1",
" 	c None",
".	c #BABDB6",
"+	c #EEEEEC",
"@	c #888A85",
"#	c #D3D7CF",
"                ",
"   ...........  ",
"   .++++@++++.  ",
"   .+..@@@..+.  ",
"   .++@@@@@++.  ",
"   .+...@...+.  ",
"   .++++@++++.  ",
"   .+++++++++.  ",
" @@@.........@@@",
" @+++++++++++++@",
" @+#+.+#+#+#+#+@",
" @+###########+@",
" @+.@@@@@@@@@.+@",
" @+...........+@",
" @+###########+@",
" @@@@@@@@@@@@@@@"};
