/* XPM */
static char * dpoly_xpm[] = {
"16 16 3 1",
"X	c None",
" 	c #FFFF00000000",
".	c #000000000000",
" ..... XXXXXXXXX",
".XXXXXX..... XXX",
".XXXXXXXXX..XXXX",
".XXXXXXXX.XXXXXX",
".XXXXXX..XXXXXXX",
".XXXXX.XXXXXXXXX",
".XXX..XXXXXXXXXX",
".XX ...XXXXXXXXX",
".XXXXXX......XXX",
" XXXXXXXXXXXX.. ",
"X.XXXXXXXXXXXX.X",
"X.XXXXXXXXXX..XX",
"XX.XXXXXXXX.XXXX",
"XXX.XXXXXX.XXXXX",
"XXX.XXXX..XXXXXX",
"XXXX .. XXXXXXXX"};
