/* XPM */
static char *edit_undo[] = {
/* columns rows colors chars-per-pixel */
"16 16 6 1",
"  c #BD4FA17C1684",
". c #C482A29B05D3",
"X c #ECB0D6B82037",
"o c #F318E3AA67FF",
"O c #FA79F1F1A77C",
"+ c None",
/* pixels */
"++++++.+++++++++",
"+++++..+++++++++",
"++++.O.+++++++++",
"+++.OX..   +++++",
"++.OXXoooo  ++++",
"+.OXXoXXXXoo +++",
".OXXXXXXXXXXX ++",
"+.OXXXXXXXXXo  +",
"++.oXoooooXX.o.+",
"+++.oo.....oXo +",
"++++.o.++++.oo +",
"+++++..+++++.O +",
"++++++.+++++.o +",
"++++++++++++Xo++",
"++++++++++++o ++",
"++++++++++++++++"
};
