/* XPM */
static char *edit_redo[] = {
/* columns rows colors chars-per-pixel */
"16 16 7 1",
"  c #4EE29B270680",
". c #73EAD2BE1616",
"X c #94FB9F050707",
"o c #A20EDAEE280A",
"O c #CC4BD6801D9D",
"+ c #AEC8ED136114",
"@ c None",
/* pixels */
"@@@@@@@@@ @@@@@@",
"@@@@@@@@@  @@@@@",
"@@@@@@@@@ + @@@@",
"@@@@@@    ++ @@@",
"@@@@ X+++++.+ @@",
"@@@ ++ooooo..+ @",
"@@ o+ooooo....+ ",
"@ o+oooO.....+ @",
"@.+OOoooooO.o @@",
"@ +OX     oo @@@",
"@ +X @@@@ o @@@@",
"@ o @@@@@  @@@@@",
"@ + @@@@@ @@@@@@",
"@ oX@@@@@@@@@@@@",
"@@ OX@@@@@@@@@@@",
"@@@@@@@@@@@@@@@@"
};
