/* XPM */
static char * egtbroad_xpm[] = {
"41 16 2 1",
".	c None",
" 	c #000000000000",
"     .................................. .",
" .....................................   ",
" ......  ...   ..  ..   .  ...  ..   .. .",
"    .. .. . .... .. . .. .. . .. . .. . .",
" ..... .. ..  ..    . .. .. .    . .. . .",
" ..... .  .... . .... .. .. . .... .. . .",
"     .. . .   ...   . .. .. ..   . .. .. ",
".........................................",
".........................................",
"..... .....    .................... .....",
"...... .... ... ................... .....",
"....... ... ... .   ...  ...  ...   .....",
"........ ..    .. .. . .. . .. . .. .....",
"....... ... ... . .... .. . .. . .. .....",
"...... .... ... . .... .. . .  . .. .....",
"..... .....    .. .....  ..  . ..  ......"};
