/* XPM */
static char * eltbroad_xpm[] = {
"41 16 2 1",
".	c #FFFFFFFFFFFF",
" 	c #000000000000",
"     .................................. .",
" .....................................   ",
" ......  ...   ..  ..   .  ...  ..   .. .",
"    .. .. . .... .. . .. .. . .. . .. . .",
" ..... .. ..  ..    . .. .. .    . .. . .",
" ..... .  .... . .... .. .. . .... .. . .",
"     .. . .   ...   . .. .. ..   . .. .. ",
".........................................",
".........................................",
"........ ..    .................... .....",
"....... ... ... ................... .....",
"...... .... ... .   ...  ...  ...   .....",
"..... .....    .. .. . .. . .. . .. .....",
"...... .... ... . .... .. . .. . .. .....",
"....... ... ... . .... .. . .  . .. .....",
"........ ..    .. .....  ..  . ..  ......"};
