/* XPM */
static char * enone_xpm[] = {
"41 16 2 1",
".	c None",
" 	c #000000000000",
"     .................................. .",
" .....................................   ",
" ......  ...   ..  ..   .  ...  ..   .. .",
"    .. .. . .... .. . .. .. . .. . .. . .",
" ..... .. ..  ..    . .. .. .    . .. . .",
" ..... .. .... . .... .. .. . .... .. . .",
"     ..   .   ...   . .. .. ..   . .. .. ",
".........................................",
".......... ... ..........................",
"..........  .. ..........................",
"..........   . ..  ..   ...  ............",
".......... . . . .. . .. . .. ...........",
".......... .   . .. . .. .   ............",
".......... ..  . .. . .. . ..............",
".......... ... ..  .. .. ..   ...........",
"........................................."};
