/* XPM */
static char*exit_xpm[]={
"16 16 2 1",
". c #ffffffffffff",
"# c #000000000000",
"................",
"................",
".###.#.#.#.###..",
".#...#.#.#..#...",
".#...#.#.#..#...",
".#...#.#.#..#...",
".#....#..#..#...",
".###..#..#..#...",
".#....#..#..#...",
".#...#.#.#..#...",
".#...#.#.#..#...",
".#...#.#.#..#...",
".###.#.#.#..#...",
"................",
"................",
"................"};
