/* XPM */
static char * extend_xpm[] = {
"16 16 4 1",
" 	c None",
".	c #FFFF00000000",
"X	c #000000000000",
"o	c #0000FFFFFFFF",
"                ",
"            .   ",
"           ...  ",
"          . . . ",
"         .X . X.",
"         XXX.XXX",
"          X . X ",
"       X X .  X ",
"        X  . X  ",
"o  o X X X.  X  ",
"oooooXX  .X X   ",
"o  o X ..  X    ",
"o  o...  XX X   ",
"o  o X XX       ",
"oooooXX         ",
"o  o X          "};
