/* XPM */
static char * go_xpm[] = {
"16 16 3 1",
" 	c None",
"X	c #000000000000",
"o	c #0000FFFF0000",
"     XXXXX      ",
"   XXXXXXXXX    ",
"  XXoooooooXX   ",
" XXoooooooooXX  ",
" XoooooooooooX  ",
"XXoooooooooooXX ",
"XXoooooooooooXX ",
"XXoooooooooooXX ",
"XXoooooooooooXX ",
"XXoooooooooooXX ",
" XoooooooooooX  ",
" XXoooooooooXX  ",
"  XXoooooooXX   ",
"   XXXXXXXXX    ",
"     XXXXX      ",
"                "};
