/* XPM */
static char * import_xpm[] = {
"16 16 2 1",
" 	c None",
".	c #FFFFFFFFFFFF",
"         .......",
" ....... .......",
" ....... ... ...",
" ....... .... ..",
" ....... .     .",
" ....... ...... ",
" ....... ...... ",
" ....... .     .",
" .  .... .... ..",
"  .. ..  ... ...",
" ....  .........",
"................",
".. . .   . .....",
"... ... .. .....",
" . . .. .. .....",
"................"};
