#define l10_width 10
#define l10_height 16
static char l10_bits[] = { 0x00, 0x00,
   0xe6, 0x01, 0xe7, 0x01, 0x37, 0x03, 0x36, 0x03, 0x36, 0x03, 0x36, 0x03,
   0x36, 0x03, 0x36, 0x03, 0x36, 0x03, 0x36, 0x03, 0x36, 0x03, 0x36, 0x03,
   0xe6, 0x01, 0xef, 0x01, 0x00, 0x00};
