#define l11_width 10
#define l11_height 16
static char l11_bits[] = { 0x00, 0x00,
   0xc6, 0x00, 0xe7, 0x00, 0xe7, 0x00, 0xc6, 0x00, 0xc6, 0x00, 0xc6, 0x00,
   0xc6, 0x00, 0xc6, 0x00, 0xc6, 0x00, 0xc6, 0x00, 0xc6, 0x00, 0xc6, 0x00,
   0xc6, 0x00, 0xef, 0x01, 0x00, 0x00};
