#define l12_width 10
#define l12_height 16
static char l12_bits[] = { 0x00, 0x00,
   0xe6, 0x00, 0xf7, 0x01, 0x17, 0x03, 0x06, 0x03, 0x06, 0x03, 0x86, 0x01,
   0x86, 0x01, 0xc6, 0x00, 0xc6, 0x00, 0x66, 0x00, 0x66, 0x00, 0x36, 0x00,
   0xf6, 0x03, 0xf7, 0x03, 0x00, 0x00};
