#define l15_width 10
#define l15_height 16
static char l15_bits[] = { 0x00, 0x00,
   0xf6, 0x03, 0xf7, 0x03, 0x37, 0x00, 0x36, 0x00, 0x36, 0x00, 0xf6, 0x00,
   0xf6, 0x01, 0x06, 0x03, 0x06, 0x03, 0x06, 0x03, 0x06, 0x03, 0x06, 0x03,
   0xf6, 0x01, 0xf7, 0x00, 0x00, 0x00};
