#define l17_width 10
#define l17_height 16
static char l17_bits[] = { 0x00, 0x00,
   0xf6, 0x03, 0xf7, 0x03, 0x07, 0x03, 0x06, 0x03, 0x06, 0x03, 0x86, 0x01,
   0x86, 0x01, 0x86, 0x00, 0xc6, 0x00, 0x46, 0x00, 0x66, 0x00, 0x26, 0x00,
   0x36, 0x00, 0x17, 0x00, 0x00, 0x00};
