#define l20_width 10
#define l20_height 16
static char l20_bits[] = { 0x00, 0x00,
   0x8e, 0x01, 0xcf, 0x03, 0xdb, 0x02, 0x59, 0x03, 0xd8, 0x02, 0x58, 0x03,
   0xc8, 0x02, 0x4c, 0x03, 0xcc, 0x02, 0x46, 0x03, 0xc6, 0x02, 0x43, 0x03,
   0xdf, 0x03, 0x9f, 0x01, 0x00, 0x00};
