#define l3_width 10
#define l3_height 16
static char l3_bits[] = { 0x00, 0x00,
   0xfc, 0x00, 0xfe, 0x01, 0x03, 0x03, 0x03, 0x03, 0x00, 0x03, 0x00, 0x03,
   0xe0, 0x01, 0xe0, 0x01, 0x00, 0x03, 0x00, 0x03, 0x03, 0x03, 0x03, 0x03,
   0xfe, 0x01, 0xfc, 0x00, 0x00, 0x00};
