#define l6_width 10
#define l6_height 16
static char l6_bits[] = { 0x00, 0x00,
   0xfc, 0x01, 0xfe, 0x03, 0x03, 0x00, 0x03, 0x00, 0x03, 0x00, 0xff, 0x01,
   0xff, 0x01, 0x03, 0x03, 0x03, 0x03, 0x03, 0x03, 0x03, 0x03, 0x03, 0x03,
   0xfe, 0x01, 0xfc, 0x00, 0x00, 0x00};
