#define l8_width 10
#define l8_height 16
static char l8_bits[] = { 0x00, 0x00,
   0xfc, 0x00, 0xfe, 0x01, 0x03, 0x03, 0x03, 0x03, 0x03, 0x03, 0x03, 0x03,
   0xfe, 0x01, 0xfe, 0x01, 0x03, 0x03, 0x03, 0x03, 0x03, 0x03, 0x03, 0x03,
   0xfe, 0x01, 0xfc, 0x00, 0x00, 0x00};
