/* XPM */
static char * move_xpm[] = {
"16 16 4 1",
" 	c None",
".	c #0000FFFFFFFF",
"X	c #000000000000",
"o	c #FFFF00000000",
" .  .     X  X  ",
"......   XXXXXX ",
" .  .     X  X  ",
" .  .   o X  X  ",
" .  .    oX  X  ",
"......   XoXXXX ",
" .  .     Xo X  ",
" .  oooooooooXX ",
" .  .     Xo X  ",
"......   XoXXXX ",
" .  .    oX  X  ",
" .  .   o X  X  ",
" .  .     X  X  ",
"......   XXXXXX ",
" .  .     X  X  ",
"                "};
