/* XPM */
static char * movedesc_xpm[] = {
"16 16 4 1",
" 	c None",
".	c #000000000000",
"X	c #FFFF00000000",
"o	c #0000FFFFFFFF",
"  ..  .. .. ..  ",
"  . . .  .  .   ",
"  . . .. .. .   ",
"  . . .   . .   ",
"  ..  ..X.. ..  ",
"       XXX      ",
"      X X X     ",
"     X  X  X    ",
"        X       ",
" .   .  X    .  ",
"..oo..ooX o.oo..",
" .o o o Xo  o.  ",
" .o o ooXoo o.  ",
" .o o o X o o.  ",
"..oo..oo.oo.oo..",
" .   .   .   .  "};
