/* XPM */
static char * openbutt_xpm[] = {
"7 16 2 1",
" 	c None",
".	c #000000000000",
"       ",
"       ",
"       ",
"       ",
"       ",
"       ",
".......",
" ..... ",
"  ...  ",
"   .   ",
"       ",
"       ",
"       ",
"       ",
"       ",
"       "};
