/* XPM */
static char * profile_xpm[] = {
"16 16 5 1",
" 	c None",
".	c #FFFF00000000",
"X	c #0000FFFFFFFF",
"o	c #00000000FFFF",
"O	c #000000000000",
"                ",
"   .            ",
"  .Xo           ",
"  .Xo           ",
" .XXXo        o ",
".XXXXo       .Xo",
"OXXXXXo      .XO",
"OXXXXXo     .XXO",
"OXXXXXXo   .XXXO",
"OXXXXXXXo .XXXXO",
"OXXXXXXXXoXXXXXO",
"OXXXXXXXXXXXXXXO",
"OXXXXXXXXXXXXXXO",
"OOOOOOOOOOOOOOOO",
"   O     O    O ",
"   O     O    O "};
