/* XPM */
static char * pull_xpm[] = {
"16 16 4 1",
" 	c None",
".	c #0000FFFFFFFF",
"X	c #FFFF00000000",
"o	c #000000000000",
"  .  .    .  .  ",
"......    ......",
"  .  .    .  .  ",
"  .  .    .  .  ",
"......    ......",
"  .  .    .  .  ",
"    X      X    ",
"    XX    XX    ",
"XXXXXXX  XXXXXXX",
"    XX    XX    ",
"  o X  o   Xo   ",
"ooo oooo oooo oo",
"  o    o    o   ",
"   o    o    o  ",
"oo oooo oooo ooo",
"   o    o    o  "};
