/* XPM */
static char * rotate_xpm[] = {
"16 16 4 1",
" 	c None",
".	c #0000FFFFFFFF",
"X	c #FFFF00000000",
"o	c #000000000000",
" .   .XX        ",
"....... XX      ",
" .   .    XX    ",
" .   .      X  X",
".......    o X X",
" .   .        XX",
" .   .   o  XXXX",
".......         ",
" .   . o        ",
" .o  o  o  o  o ",
".ooooooooooooooo",
" .o  o  o  o  o ",
" .oo o  o  o  o ",
"..o..o. o  o  o ",
" ooooooooooooooo",
"  o  o  o  o  o "};
