/* XPM */
static char * select_xpm[] = {
"16 16 3 1",
" 	c None",
".	c #000000000000",
"X	c #FFFF00000000",
"                ",
" .   .    .   . ",
"................",
" .   .    .   . ",
" .        .   . ",
" .  XX        . ",
"... XXXXXX    ..",
" .   XXXXXXXX . ",
"     XXXXXXXX   ",
"     XXXXXXX    ",
"     XXXXXX     ",
"      XXXXXX    ",
"      XXX XXX   ",
"      XX   XXX  ",
"            XXX ",
"             X  "};
