/* XPM */
static char * snapcurs_xpm[] = {
"16 16 3 1",
" 	c #FFFFFFFFFFFF",
".	c #0000FFFF0000",
"X	c #000000000000",
"                ",
"  .   .   .   . ",
" . . . . . . . .",
"  .XXXXX  .   . ",
"   XXXXXXXX     ",
"  .XXXXXXXX   . ",
" . XXXXXXX . . .",
"  .XXXXXX .   . ",
"    XXXXXX      ",
"  . XXX XXX   . ",
" . .XX . XXX . .",
"  .   .   XXX . ",
"           X    ",
"  .   .   .   . ",
" . . . . . . . .",
"  .   .   .   . "};
