/* XPM */
static char * splittrk_xpm[] = {
"16 16 3 1",
" 	c #FFFFFFFFFFFF",
".	c #000000000000",
"X	c #FFFF00000000",
"           . .  ",
"            .   ",
"     X     . . .",
"     X  . .   . ",
"     X   .   . .",
"  XXXX  . . .   ",
"           .    ",
"          . .   ",
"   . .          ",
"    .           ",
"   . . .  XXXX  ",
". .   .   X     ",
" .   . .  X     ",
". . .     X     ",
"   .            ",
"  . .           "};
