/* XPM */
static char * struct_xpm[] = {
"16 16 3 1",
"o	c #000000000000",
" 	c #000000000000",
".	c #FFFFFFFFFFFF",
"                ",
"  ............  ",
" . .......... . ",
" .. ........ .. ",
" ... ...... ... ",
" ....      .... ",
" ... ...... ... ",
" .. ........ .. ",
" . .......... . ",
"  ............  ",
"                ",
"o ............ o",
"oo .......... oo",
"ooo ........ ooo",
"oooo        oo  ",
"oooooooooooooo  "};
