/* XPM */
static char * switchmotor2_xpm[] = {
"16 16 3 1",
" 	c grey100",
".	c black",
"+	c red",
"                ",
"                ",
"                ",
"                ",
"  ....  ..   .. ",
" .      ..   .. ",
" .      ..   .. ",
"  ...   . . . . ",
"     .  . . . . ",
"     .  . . . . ",
" ....   .  .  . ",
"            ++++",
"            +   ",
"            ++++",
"            +   ",
"            ++++"};
