/* XPM */
static char * switchmnew_xpm[] = {
"16 16 47 1",
" 	c None",
".	c #FFF414",
"+	c #FFF416",
"@	c #FFF314",
"#	c #EF2828",
"$	c #EF2929",
"%	c #FFF518",
"&	c #FFF41E",
"*	c #FFF639",
"=	c #FFF52B",
"-	c #FFF41A",
";	c #FFF512",
">	c #EE2828",
",	c #ED2828",
"'	c #FFF513",
")	c #FFF521",
"!	c #FFF969",
"~	c #FFFA92",
"{	c #FFF97C",
"]	c #FFF63B",
"^	c #FFF317",
"/	c #EE2929",
"(	c #FFF417",
"_	c #FFF63C",
":	c #FFFA95",
"<	c #FFFDE7",
"[	c #FFFBB3",
"}	c #FFF75C",
"|	c #FFF51B",
"1	c #FFF531",
"2	c #FFF980",
"3	c #FFFBB5",
"4	c #FFFA98",
"5	c #FFF64C",
"6	c #F35820",
"7	c #FFF63E",
"8	c #FFF74D",
"9	c #FFF51F",
"0	c #FFF515",
"a	c #EC2828",
"b	c #FFF312",
"c	c #FFF319",
"d	c #E92C2C",
"e	c #D5403F",
"f	c #898A83",
"g	c #8B7247",
"h	c #8A8577",
"          .+@   ",
"    #$   %&*=-; ",
"    >$, ')!~{]^ ",
"    /$/ (_:<[}| ",
"     $$ (12345- ",
"     $$6 |7}890 ",
"     >$a bc|-0  ",
"      de        ",
"       f        ",
"       g        ",
"       gg       ",
"      ghf       ",
"      g fg      ",
"     g  f g     ",
"     g  f g     ",
"    gggggggg    "};
