/* XPM */
static char * switchmdel_xpm[] = {
"16 16 35 1",
" 	c None",
".	c #CC0000",
"+	c #CB0000",
"@	c #FF0000",
"#	c #FE0C28",
"$	c #FE112B",
"%	c #FF0101",
"&	c #F00D21",
"*	c #FE142E",
"=	c #F80E27",
"-	c #D00103",
";	c #E80306",
">	c #FF0303",
",	c #FF0611",
"'	c #FF060D",
")	c #FF0202",
"!	c #F51022",
"~	c #FD132E",
"{	c #5A5954",
"]	c #E71B32",
"^	c #FE132D",
"/	c #595C58",
"(	c #575954",
"_	c #FE102C",
":	c #61635F",
"<	c #5A5D5A",
"[	c #545652",
"}	c #5E5F5C",
"|	c #555753",
"1	c #FE1530",
"2	c #5B5C58",
"3	c #626460",
"4	c #565752",
"5	c #575854",
"6	c #575A56",
"                ",
"    ..          ",
"    +.+       @ ",
" #$ ...     @@% ",
"  ##&..   %@@   ",
"   *#=-. @@     ",
"     ##;@>      ",
"      ,@'       ",
"     )@!#~      ",
"    %@ {]#^     ",
"   @@  /( #_    ",
"  @@   :<  #    ",
" @@   [ }| 1#   ",
"@@      2   #$  ",
"        3    #  ",
"    4   56 |    "};
