#define switchmotormark_width 16
#define switchmotormark_height 16
static char switchmotormark_bits[] = {
  0x00, 0x00, 0x00, 0x00, 0x00, 0x00, 0x00, 0x00, 0x00, 0x00, 0xC8, 0x3F, 
  0xC8, 0x3F, 0xFC, 0x3F, 0xFC, 0x3F, 0xC8, 0x3F, 0xC8, 0x3F, 0x08, 0x00, 
  0x08, 0x00, 0x08, 0x00, 0x08, 0x00, 0x08, 0x00, };
