/* XPM */
static char * switchmedit_xpm[] = {
"16 16 59 1",
" 	c None",
".	c #6F4D10",
"+	c #A0711A",
"@	c #EF2828",
"#	c #EF2929",
"$	c #704E10",
"%	c #A9781B",
"&	c #CB9022",
"*	c #EE2828",
"=	c #ED2828",
"-	c #B07D1D",
";	c #EE2929",
">	c #715010",
",	c #B7821E",
"'	c #CA8F22",
")	c #9B6C1A",
"!	c #71510F",
"~	c #BC851F",
"{	c #C98E22",
"]	c #906717",
"^	c #684A0F",
"/	c #F02929",
"(	c #755311",
"_	c #BF8820",
":	c #C68D21",
"<	c #886116",
"[	c #674A10",
"}	c #D92D24",
"|	c #775511",
"1	c #C38B21",
"2	c #C38A21",
"3	c #7E5B14",
"4	c #6D4B11",
"5	c #D03026",
"6	c #855517",
"7	c #C68D22",
"8	c #795613",
"9	c #815D19",
"0	c #C88F21",
"a	c #B9831F",
"b	c #725012",
"c	c #896C2E",
"d	c #D3AE5A",
"e	c #CB9124",
"f	c #B4801E",
"g	c #6E4D11",
"h	c #CDB678",
"i	c #E2D29B",
"j	c #BC9746",
"k	c #8A6C2B",
"l	c #D7BC78",
"m	c #AD904F",
"n	c #816632",
"o	c #836C40",
"p	c #65490C",
"q	c #7A5B21",
"r	c #785618",
"s	c #878A85",
"t	c #898B86",
"              .+",
"    @#       $%&",
"    *#=     $-&&",
"    ;#;    >,&')",
"     ##   !~&{]^",
"     ##/ (_&:<[ ",
"     *#}|1&234  ",
"      567&_8    ",
"      90&ab     ",
"     cdefg      ",
"     hijg       ",
"    klmnog      ",
"   pqrg sg      ",
"     g  ssg     ",
"     g  tsg     ",
"    gggggggg    "};
