/* XPM */
static char * train_xpm[]={
"16 16 3 1",
".	c None",
"#	c #800080008000",
"a	c #000000000000",
".....#..#.#.....",
"aaaa.......##...",
"...a........#...",
"...a...a...#....",
"...a..aaa..aa...",
"...a..aaa..aa...",
"aaaaaaaaaaaaaa..",
"aaaaaaaaaaaaaa..",
"aaaaaaaaaaaaaa..",
"aaaaaaaaaaaaaaaa",
"aaaaaaaaaaaaaaaa",
"...aa...aa.....a",
"..aaaa.aaaa....a",
"..aaaa.aaaa..aa.",
"...aa...aa...aa.",
"................"};
