/* XPM */
static char * xtc_xpm[] = {
"64 64 16 1",
" 	c None",
".	c #888A85",
"+	c #555753",
"@	c #D3D7CF",
"#	c #BABDB6",
"$	c #EEEEEC",
"%	c #4E9A06",
"&	c #73D216",
"*	c #8AE234",
"=	c #E9B96E",
"-	c #FCAF3E",
";	c #C4A000",
">	c #C17D11",
",	c #8F5902",
"'	c #F57900",
")	c #2E3436",
"       .......................................+++++++++++       ",
"       .@@@@@@@@@@@@@@@@@@@@@@@@@@@@@@@@@@@@@@@@@@@@@@@@.+      ",
"      .#$$$$$$@$$$$$$$$$$$$$$$$$$$$$$$$$$$$$$$$$$$$$$$$$$.      ",
"      .#$$$$$$@$$$$$$$$$$$$$$$$$$$$$$$$$$$$$$$$$$$$$$$$$$.      ",
"      .#$$$$$$@$$$$$$$$$$$$$$$$$$$$$$$$$$$$$$$$$$$$$$$$$$.      ",
"      .#$$$$$$@$$$$$$$$$$$$$$$$$$$$$$$$$$$$$$$$$$$$$$$$$$.      ",
"      .#$$$$$$@$$$$$$$$$$$$$$$$$$$$$$$$$$$$$$$$$$$$$$$$$$.      ",
"      .#$$$$$$@$$$$$$$$$$$$$$$$$$$$$$$$$$$$$$$$$$$$$$$$$$.      ",
"      .#$$$$$$@$$$$$$$$$$$$$$$$$$$$$$$$$$$$$$$$$$$$$$$$$$.      ",
"      .#$$$$$$@$$$$$$$$$$$$$$$$$$$$$$$$$$$$$$$$$$$$$$$$$$.      ",
"      .#$$$$$$@$$$$$$$$$$$$$$$$$$$$$$$$$$$$$$$$$$$$$$$$$$+      ",
"      .#$$$$$$@$$$$$$$$$$$$$$$$$$$$$$$$$$$$$$$$$$$$$$$$$$+      ",
"      ..$$$$$$@$$$$$$$$$$$$$$$$$$$$$$$$$$$$$$$$$$$$$$$$$$+      ",
"      ..$$$$$$@$$$$$$$$$$$$$$$$$$$$$$$$$$$$$$$$$$$$$$$$$$+      ",
"      ..$$$$$$@$$$$$$$$$$$$$$$$$$$$$$$$$$$$$$$$$$$$$$$$$$+      ",
"      ..$$$$$$@$$$$$$$$$$$$$$$$$$$$$$$$$$$$$$$$$$$$$$$$$$+      ",
"      ..$$$$$$@$$$$$$$$$$$$$$$$$$$$$$$$$$$$$$$$$$$$$$$$$$+      ",
"      ..$$$$$$@$$$$$$$$$$$$$$$$$$$$$$$$$$$$$$$$$$$$$$$$$$+      ",
"      ..$$$$$$@$$$$$$$$$$$$$$$$$$$$$$$$$$$$$$$$$$$$$$$$$$+      ",
"      ..$$$$$$@$$$$$$$$$$$$$$$$$$$$$$$$$$$$$$$$$$$$$$$$@@+      ",
"      ..$$$@$$@$$$$$$$$$$$$$$$$$$$$$$$$$$$$$$$$$$$$$$$@%%+      ",
"      ..$$@#@$@$$$$$$$$$$$$$$$$$$$$$$$$$$$$$$$$$$$$$$#%&@+      ",
"      ..$$$@$$@$$$$$$$$$$$$$$$$$$$$$$$$$$$$$$$$$$$$@%%*@@+      ",
"      ..$$$$$$@$$$$$$$$$$$$$$$$$$$$$$$$$$$$$$$$$$$$%&*@**+      ",
"      ..$$$$$$@$$$$$$$$$$$$$$$$$$$$$$$$$$$$$$$$$$@%*@=***+      ",
"      ..$$$$$$@$$$$$$$$$$$$$$$$$$$$$$$$$$$$$$$$$#%*=***&%+      ",
"      ..$$$$$$@$$$$$$$$$$$$$$$$$$$$$$$$$$$$$$$$%%*@***&%%+      ",
"      ..$$$$$$@$$$$$$$$$$$$$$$$$$$$$$$$$$$$$$@%&*****%%%%+      ",
"      ..$$$$$$@$$$$$$$$$$$$$$$$$$$$$$$$$$$$$@%&=@***%%%%@+      ",
"      ..$$$$$$@$$$$$$$$$$$$$$$$$$$$$$$$$$$$=%*=***&%%%%#$+      ",
"      ..$$$$$$@$$$$$$$$$$$$$$$$$$$$$$$$$$@%&*@***&%%%%@$$+      ",
"      ..$$$$$$@$$$$$$$$$$$$$$$$$$$$$$$$$@%&*=***%%%%%@$$$+      ",
"      +.$$$$$$@$$$$$$$$$$$$$$$$$$$$$$$$#%**=**&%%%%#$$$$$+      ",
"      +.$$$$$$@$$$$$$$$$$$$$$$$$$$$$$$=%*=@**&%%%%@$$$$$$+      ",
"      +.$$$$$$@$$$$$$$$$$$$$$$$$$$$$$=-*@***%%%%%@$$$$$$$+      ",
"      +.$$$$$$@$$$===$$$$$$$$$$$$$$$=--=**&%%%%#$$$$$$$$$+      ",
"      +.$$$$$$@$$@@@@===$$$$$$$$$$$@----;*%%%%@$$$$$$$$$$+      ",
"      +.$$$@$$@$$@#.#=@=@=@$$$$$$$@------;%%%@$$$$$$$$$$$+      ",
"      +.$$@#@$@$$$$=..#=@==@@@$$$$--------;%$$$$$$$$$$$$$+      ",
"      +.$$$@$$@$$$@@=@#.=@=$===@==------=@$$$$$$$$$$$$$$$+      ",
"      +.$$$$$$@$$$#@=@=@...@==@==------=@$$$$$$$$$$$$$$$$+      ",
"      +.$$$$$$@$$@#.=##===@...#=-----====$==$@@$$@$$$$$$$+      ",
"      +.$$$$$$@$$@==>,.>===-===>--=>======-==-'=='@==$$$$+      ",
"      +.$$$$$$@$$$#===.,,,==>.,>>==..====>======='==@$$$$+      ",
"      +.$$$$$$@$$$#==#==,.+.,++,=.=====>.,......=>==#$$$$+      ",
"      +.$$$$$$@$$$@@@@===$-@=...=#=#,,#,#===.=...,..#@$$$+      ",
"      +.$$$$$$@$$$@@=@=@=$======#.==#>#>@=====@===@=$$$$$+      ",
"      +.$$$$$$@$$$####=#=#=#====#=#>#,.....,....#####$$$$+      ",
"      +.$$$$$$@$$$####.#=#=#==#=###=#=#=#,.......####$$$$+      ",
"      +.$$$$$$@$$$@==@===$=@====@===$-==='=$===@==@==$$$$+      ",
"      +.$$$$$$@$$$$@=$@@@$@@@@@=$@@@$=@@$==$=-=$==$==@$$$+      ",
"      +.$$$$$$@$$$$$$$$$$$$$$$$$$$$$$$$$$$$$$@$$$@$$@$$$$+      ",
"      +.$$$$$$@$$$$$$$$$$$$$$$$$$$$$$$$$$$$$$$$$$$$$$$$$$+      ",
"      +.$$$$$$@$$$$$$$$$$$$$$$$$$$$$$$$$$$$$$$$$$$$$$$$$$+      ",
"      ++$$$$$$@$$$$$$$$$$$$$$$$$$$$$$$$$$$$$$$$$$$$$$$$$$+      ",
"      ++$$$$$$@$$$$$$$$$$$$$$$$$$$$$$$$$$$$$$$$$$$$$$$$$$+      ",
"      ++$$$$$$@$$$$$$$$$$$$$$$$$$$$$$$$$$$$$$$$$$$$$$$$$$+      ",
"      )+$$$$$$@$$$$$$$$$$$$$$$$$$$$$$$$$$$$$$$$$$$$$$$$$$+)     ",
"      )+$$$$$$@$$$$$$$$$$$$$$$$$$$$$$$$$$$$$$$$$$$$$$$$$$+)     ",
"      )+.###############################################.+      ",
"       )+++++++++++++++++++++++++++++++++++++++++++++++++       ",
"                                                                ",
"                                                                ",
"                                                                "};
