/* XPM */
static char * zero_xpm[] = {
"6 16 2 1",
" 	c None",
".	c #000000000000",
"      ",
" .... ",
"......",
"..  ..",
"..  ..",
"..  ..",
"..  ..",
"..  ..",
"..  ..",
"..  ..",
"..  ..",
"..  ..",
"..  ..",
"......",
" .... ",
"      "};
