/* XPM */
static char * zoom_xpm[] = {
"16 16 5 1",
" 	c None",
"-	c #FFFFFFFFFFFF",
".	c #000000000000",
"X	c #0000FFFFFFFF",
"o	c #FFFF7DF70000",
"   .....        ",
" ..-XXXX..      ",
" .----XXX.      ",
".--.---.--.     ",
".-...-.---.     ",
".--.-.----.     ",
".---.-...-.     ",
".XX.------.     ",
" .XXX----.      ",
" ..XXX--...     ",
"   ..... .o.    ",
"          .o.   ",
"           .o.  ",
"            .o. ",
"             .. ",
"                "};
